<?xml version="1.0" encoding="UTF-8"?>
<svg fill="none" viewBox="0 0 144 140" xmlns="http://www.w3.org/2000/svg">
<circle transform="translate(2)" cx="70" cy="70" r="70" fill="#EFEFEF"/>
<rect transform="translate(2 18)" width="140" height="91" rx="5" fill="#fff"/>
<path transform="translate(2 95)" d="m0 0h140v9c0 2.7614-2.239 5-5 5h-133c-1.1046 0-2-0.8954-2-2v-12z" fill="#BCD5EC"/>
<path transform="translate(2 18)" d="m0 77v9c0 2.7614 2.2386 5 5 5h51m-56-14v-72c0-2.7614 2.2386-5 5-5h130c2.761 0 5 2.2386 5 5v72m-140 0h140m0 0v9c0 2.7614-2.239 5-5 5h-51m-21-7h14m-21 7v10.5m0-10.5h28m0 10.5v-10.5m-56 21l5.5355-5.536c0.9377-0.937 2.2095-1.464 3.5356-1.464h65.858c1.326 0 2.598 0.527 3.535 1.464l5.536 5.536" stroke="#1B212B" stroke-linecap="round" stroke-linejoin="round" stroke-width="3"/>
<rect transform="translate(30 35.5)" width="28" height="21" fill="#BCD5EC"/>
<rect transform="translate(61.5 35.5)" width="52.5" height="21" fill="#BCD5EC"/>
<rect transform="translate(30 25)" width="84" height="7" fill="#BCD5EC"/>
<rect transform="translate(30 60)" width="38.5" height="28" fill="#BCD5EC"/>
<rect transform="translate(72 60)" width="42" height="28" fill="#BCD5EC"/>
</svg>
